<svg width="2004" height="2260" viewBox="0 0 2004 2260" fill="none" xmlns="http://www.w3.org/2000/svg">
<path d="M906.574 213.175L140.787 644.814L345.289 760.083L906.574 443.712V213.175Z" fill="#FFD900"/>
<path d="M345.289 760.083L140.787 644.814V1617.49L243.038 1559.86L294.163 1531.04L345.289 1502.22L345.289 760.083Z" fill="#FF0062"/>
<path d="M140.787 1617.49L906.574 2049.13V1818.59L345.289 1502.22L294.163 1531.04L243.038 1559.86L140.787 1617.49Z" fill="#FF4000"/>
<path d="M1100.66 443.712V973.251H1197.7H1294.75V553.11L1661.95 760.083L1764.2 702.449L1866.45 644.814L1100.66 213.175V389.013V443.712Z" fill="#FF0000"/>
<path d="M1100.66 1162.73H1294.75H1661.95H1864.77L1864.07 973.251H1661.95H1446.44H1294.75H1197.7H1100.66V1162.73Z" fill="#358445"/>
<path fill-rule="evenodd" clip-rule="evenodd" d="M1002 0.57373L2003.5 565.074V1694.07L1002 2258.57L0.5 1694.07V565.074L1002 0.57373ZM140.787 644.814L906.574 213.175V443.712L345.289 760.083L345.289 1502.22L906.574 1818.59V2049.13L140.787 1617.49V644.814ZM1100.66 973.251V443.712V389.013V213.175L1866.45 644.814L1764.2 702.449L1661.95 760.083L1294.75 553.11V973.251H1446.44H1661.95H1864.07L1864.77 1162.73L1866.45 1617.49L1661.95 1732.76L1100.66 2049.13V1818.59L1661.95 1502.22V1162.73H1294.75H1100.66V973.251Z" fill="white"/>
<path fill-rule="evenodd" clip-rule="evenodd" d="M1661.95 1502.22V1162.73H1864.77L1866.45 1617.49L1661.95 1732.76V1502.22Z" fill="#00B7FF"/>
<path d="M1100.66 1818.59V2049.13L1661.95 1732.76V1502.22L1100.66 1818.59Z" fill="#373636"/>
<path d="M140.787 644.814L906.574 213.175V443.712L345.289 760.083M140.787 644.814L345.289 760.083M140.787 644.814V1617.49M345.289 760.083L345.289 1502.22M1100.66 1162.73H1294.75H1661.95M1100.66 1162.73V443.712M1100.66 1162.73V973.251M1100.66 1162.73H1661.95M1100.66 443.712V389.013V213.175M1100.66 443.712V213.175M1100.66 443.712V973.251M1100.66 973.251H1197.7H1294.75M140.787 1617.49L906.574 2049.13V1818.59L345.289 1502.22M140.787 1617.49L243.038 1559.86L294.163 1531.04M140.787 1617.49L294.163 1531.04M140.787 1617.49L345.289 1502.22M1661.95 1502.22V1162.73M1661.95 1502.22L1100.66 1818.59V2049.13L1661.95 1732.76M1661.95 1502.22V1732.76M345.289 1502.22L294.163 1531.04M1100.66 213.175L1866.45 644.814L1764.2 702.449L1661.95 760.083L1294.75 553.11V973.251M1294.75 973.251H1446.44H1661.95H1864.07L1864.77 1162.73M1661.95 1162.73H1864.77M1864.77 1162.73L1866.45 1617.49L1661.95 1732.76M2003.5 565.074L1002 0.57373L0.5 565.074V1694.07L1002 2258.57L2003.5 1694.07V565.074Z" stroke="#373636"/>
</svg>
